<?xml version="1.0" encoding="utf-8"?>
<!-- Generator: Adobe Illustrator 17.0.0, SVG Export Plug-In . SVG Version: 6.00 Build 0)  -->
<!DOCTYPE svg PUBLIC "-//W3C//DTD SVG 1.1//EN" "http://www.w3.org/Graphics/SVG/1.1/DTD/svg11.dtd">
<svg version="1.1" id="Capa_1" xmlns="http://www.w3.org/2000/svg" xmlns:xlink="http://www.w3.org/1999/xlink" x="0px" y="0px"
	 width="47.667px" height="47.833px" viewBox="0 0 47.667 47.833" enable-background="new 0 0 47.667 47.833" xml:space="preserve">
<g>
	<path fill-rule="evenodd" clip-rule="evenodd" fill="#FFFFFF" d="M21.961,14.993c-3.934,0-7.135,3.201-7.135,7.135
		c0,3.934,3.201,7.135,7.135,7.135s7.135-3.201,7.135-7.135C29.096,18.194,25.895,14.993,21.961,14.993z"/>
	<path fill-rule="evenodd" clip-rule="evenodd" fill="#FFFFFF" d="M24,1.167c-12.703,0-23,10.297-23,23c0,12.703,10.297,23,23,23
		c12.703,0,23-10.297,23-23C47,11.464,36.703,1.167,24,1.167z M35.212,37.417c-0.541,0-1.067-0.223-1.433-0.606l-5.463-5.446
		c-1.863,1.29-4.093,1.975-6.354,1.975c-6.195,0-11.212-5.017-11.212-11.212c0-6.195,5.017-11.212,11.212-11.212
		c6.195,0,11.212,5.017,11.212,11.212c0,2.262-0.685,4.491-1.975,6.354l5.463,5.463c0.366,0.366,0.589,0.892,0.589,1.433
		C37.25,36.493,36.327,37.417,35.212,37.417z"/>
</g>
</svg>
