<?xml version="1.0" encoding="utf-8"?>
<!-- Generator: Adobe Illustrator 17.0.0, SVG Export Plug-In . SVG Version: 6.00 Build 0)  -->
<!DOCTYPE svg PUBLIC "-//W3C//DTD SVG 1.1//EN" "http://www.w3.org/Graphics/SVG/1.1/DTD/svg11.dtd">
<svg version="1.1" id="Capa_1" xmlns="http://www.w3.org/2000/svg" xmlns:xlink="http://www.w3.org/1999/xlink" x="0px" y="0px"
	 width="430.113px" height="430.114px" viewBox="-388.5 329.5 430.113 430.114"
	 enable-background="new -388.5 329.5 430.113 430.114" xml:space="preserve">
<g display="none">
	<path id="Facebook" display="inline" fill="#FFFFFF" d="M-230.419,412.8c0,10.839,0,59.218,0,59.218h-43.385v72.412h43.385v215.183
		h89.122V544.436h59.805c0,0,5.601-34.721,8.316-72.685c-7.784,0-67.784,0-67.784,0s0-42.127,0-49.511
		c0-7.4,9.717-17.354,19.321-17.354c9.586,0,29.818,0,48.557,0c0-9.859,0-43.924,0-75.385c-25.016,0-53.476,0-66.021,0
		C-232.622,329.496-230.419,401.98-230.419,412.8z"/>
</g>
<g display="none">
	<g display="inline">
		<path fill="#FFFFFF" d="M-112.034,335.24h-99.84c-44.489,0-75.286,9.754-103.005,32.652
			c-21.799,18.807-34.809,46.141-34.809,73.12c0,41.567,31.692,85.741,90.419,85.741c5.647,0,11.898-0.579,17.415-1.094
			l-0.813,1.976c-2.361,5.655-4.596,10.99-4.596,19.318c0,16.213,7.821,26.214,15.383,35.877l0.951,1.224l-1.691,0.117
			c-24.251,1.66-69.389,4.756-102.36,25.02c-38.942,23.153-41.969,56.833-41.969,66.6c0,38.86,36.214,78.084,117.125,78.084
			c94.081,0,143.309-51.904,143.309-103.173c0.009-37.922-22.227-56.643-45.83-76.518l-19.91-15.487
			c-6.152-5.097-13.814-11.44-13.814-23.192c0-11.553,7.661-19.179,14.423-25.907l0.705-0.713
			c21.501-16.935,45.869-36.136,45.869-77.668c0-41.757-26.093-63.336-38.64-73.708h33.131c0.406,0,0.813-0.112,1.15-0.333
			l28.54-17.943c0.813-0.514,1.193-1.505,0.925-2.43C-110.218,335.876-111.074,335.24-112.034,335.24z M-233.107,730.998
			c-57.348,0-95.879-26.784-95.879-66.652c0-26.032,15.759-44.948,46.798-56.193c24.856-8.366,56.941-8.781,57.261-8.781
			c5.435,0,8.167,0,12.508,0.545C-172.291,628.473-153,643.467-153,672.024C-153.004,708.403-183.701,730.998-233.107,730.998z
			 M-233.647,511.451c-48.13,0-68.105-63.267-68.105-97.142c0-17.225,3.917-30.447,11.976-40.43
			c8.747-10.943,23.723-18.012,38.155-18.012c44.191,0,68.628,59.397,68.628,100.449c0,6.477,0,26.179-13.611,39.863
			C-205.756,505.316-220.642,511.451-233.647,511.451z"/>
		<path fill="#FFFFFF" d="M27.898,530.765h-52.609v-52.423c0-1.193-0.973-2.162-2.162-2.162h-22.63
			c-1.193,0-2.162,0.968-2.162,2.162v52.423h-52.345c-1.193,0-2.162,0.969-2.162,2.162v22.932c0,1.189,0.968,2.162,2.162,2.162
			h52.345v52.76c0,1.189,0.968,2.162,2.162,2.162h22.63c1.189,0,2.162-0.973,2.162-2.162v-52.769h52.609
			c1.193,0,2.162-0.964,2.162-2.162v-22.924C30.06,531.729,29.096,530.765,27.898,530.765z"/>
	</g>
</g>
<g>
	<g>
		<path fill="#FFFFFF" d="M39.658,412.418c-15.687,6.951-32.518,11.665-50.203,13.769c18.057-10.813,31.88-27.964,38.431-48.339
			c-16.938,10.014-35.635,17.285-55.556,21.227c-15.953-17.018-38.644-27.618-63.812-27.618c-48.285,0-87.435,39.15-87.435,87.409
			c0,6.844,0.772,13.529,2.264,19.922c-72.654-3.649-137.078-38.458-180.196-91.351c-7.537,12.891-11.825,27.911-11.825,43.944
			c0,30.335,15.447,57.101,38.884,72.76c-14.329-0.479-27.805-4.421-39.603-10.973v1.092c0,42.346,30.148,77.687,70.124,85.731
			c-7.324,1.971-15.047,3.063-23.037,3.063c-5.646,0-11.106-0.559-16.459-1.625c11.132,34.756,43.411,60.03,81.656,60.723
			c-29.909,23.437-67.621,37.366-108.581,37.366c-7.057,0-14.009-0.426-20.853-1.199c38.697,24.849,84.639,39.337,134.016,39.337
			c160.835,0,248.749-133.217,248.749-248.749l-0.293-11.319C13.105,445.336,27.966,429.943,39.658,412.418z"/>
	</g>
</g>
</svg>
