<?xml version="1.0" encoding="utf-8"?>
<!-- Generator: Adobe Illustrator 17.0.0, SVG Export Plug-In . SVG Version: 6.00 Build 0)  -->
<!DOCTYPE svg PUBLIC "-//W3C//DTD SVG 1.1//EN" "http://www.w3.org/Graphics/SVG/1.1/DTD/svg11.dtd">
<svg version="1.1" id="Capa_1" xmlns="http://www.w3.org/2000/svg" xmlns:xlink="http://www.w3.org/1999/xlink" x="0px" y="0px"
	 width="90px" height="90px" viewBox="17 17 90 90" enable-background="new 17 17 90 90" xml:space="preserve">
<g>
	<path fill="#724D9F" d="M75.28,47.126H48.72c-1.753,0-3.187,1.434-3.187,3.187s1.434,3.187,3.187,3.187H75.28
		c1.753,0,3.187-1.434,3.187-3.187S77.033,47.126,75.28,47.126z"/>
	<path fill="#724D9F" d="M75.28,58.813H48.72c-1.753,0-3.187,1.434-3.187,3.187s1.434,3.187,3.187,3.187H75.28
		c1.753,0,3.187-1.434,3.187-3.187S77.033,58.813,75.28,58.813z"/>
	<path fill="#724D9F" d="M75.28,70.499H48.72c-1.753,0-3.187,1.434-3.187,3.187s1.434,3.187,3.187,3.187H75.28
		c1.753,0,3.187-1.434,3.187-3.187S77.033,70.499,75.28,70.499z"/>
</g>
</svg>
