<?xml version="1.0" encoding="utf-8"?>
<!-- Generator: Adobe Illustrator 17.0.0, SVG Export Plug-In . SVG Version: 6.00 Build 0)  -->
<!DOCTYPE svg PUBLIC "-//W3C//DTD SVG 1.1//EN" "http://www.w3.org/Graphics/SVG/1.1/DTD/svg11.dtd">
<svg version="1.1" id="Capa_1" xmlns="http://www.w3.org/2000/svg" xmlns:xlink="http://www.w3.org/1999/xlink" x="0px" y="0px"
	 width="17.992px" height="17.992px" viewBox="0 0 17.992 17.992" enable-background="new 0 0 17.992 17.992" xml:space="preserve">
<g>
	<path fill="#FFFFFF" d="M15.121,4.302l-3.264,3.264v9.21c0,0.343-0.123,0.637-0.369,0.883c-0.246,0.246-0.54,0.369-0.883,0.369
		s-0.637-0.123-0.883-0.369c-0.246-0.246-0.369-0.54-0.369-0.883v-4.292H8.638v4.292c0,0.343-0.123,0.637-0.368,0.883
		c-0.246,0.246-0.541,0.369-0.883,0.369s-0.637-0.123-0.883-0.369c-0.246-0.246-0.369-0.54-0.369-0.883v-9.21L2.871,4.302
		C2.662,4.093,2.558,3.84,2.558,3.542c0-0.298,0.104-0.551,0.313-0.76c0.208-0.209,0.462-0.313,0.76-0.313
		c0.298,0,0.551,0.104,0.76,0.313L6.94,5.33h4.113l2.548-2.548c0.209-0.209,0.462-0.313,0.76-0.313c0.298,0,0.551,0.104,0.76,0.313
		c0.209,0.209,0.313,0.462,0.313,0.76C15.434,3.84,15.329,4.093,15.121,4.302z M10.767,0.697C11.255,1.186,11.5,1.776,11.5,2.469
		c0,0.693-0.244,1.283-0.732,1.771c-0.488,0.488-1.078,0.732-1.771,0.732c-0.693,0-1.284-0.244-1.772-0.732
		C6.736,3.752,6.492,3.162,6.492,2.469c0-0.693,0.244-1.283,0.732-1.772c0.488-0.488,1.078-0.732,1.772-0.732
		C9.689-0.035,10.279,0.209,10.767,0.697z"/>
</g>
</svg>
