<?xml version="1.0" encoding="utf-8"?>
<!-- Generator: Adobe Illustrator 17.0.0, SVG Export Plug-In . SVG Version: 6.00 Build 0)  -->
<!DOCTYPE svg PUBLIC "-//W3C//DTD SVG 1.1//EN" "http://www.w3.org/Graphics/SVG/1.1/DTD/svg11.dtd">
<svg version="1.1" id="Capa_1" xmlns="http://www.w3.org/2000/svg" xmlns:xlink="http://www.w3.org/1999/xlink" x="0px" y="0px"
	 width="17.992px" height="17.992px" viewBox="0 0 17.992 17.992" enable-background="new 0 0 17.992 17.992" xml:space="preserve">
<g>
	<path fill="#FFFFFF" d="M16.391,14.784c0,0.175-0.064,0.325-0.191,0.452c-0.127,0.128-0.277,0.191-0.452,0.191h-4.642
		c0.007,0.113,0.027,0.406,0.061,0.879c0.033,0.472,0.051,0.835,0.051,1.089c0,0.168-0.061,0.311-0.182,0.428
		C10.915,17.941,10.77,18,10.603,18H7.388c-0.168,0-0.311-0.059-0.432-0.176c-0.121-0.117-0.181-0.26-0.181-0.428
		c0-0.254,0.017-0.617,0.05-1.089c0.034-0.473,0.054-0.766,0.061-0.879H2.244c-0.174,0-0.325-0.063-0.452-0.191
		c-0.127-0.127-0.191-0.277-0.191-0.452c0-0.174,0.063-0.324,0.191-0.451l4.039-4.05H3.53c-0.174,0-0.325-0.063-0.452-0.19
		C2.951,9.966,2.887,9.816,2.887,9.641c0-0.174,0.064-0.324,0.191-0.452L7.117,5.14H5.138c-0.174,0-0.325-0.063-0.452-0.191
		C4.558,4.822,4.495,4.671,4.495,4.497c0-0.174,0.063-0.325,0.191-0.452l3.858-3.858C8.671,0.06,8.822-0.004,8.996-0.004
		c0.174,0,0.325,0.064,0.452,0.191l3.858,3.858c0.127,0.127,0.19,0.278,0.19,0.452c0,0.174-0.063,0.325-0.19,0.452
		c-0.127,0.127-0.278,0.191-0.452,0.191h-1.979l4.039,4.049c0.127,0.127,0.19,0.278,0.19,0.452c0,0.175-0.063,0.325-0.19,0.452
		c-0.128,0.127-0.278,0.19-0.452,0.19H12.16l4.039,4.05C16.326,14.46,16.391,14.611,16.391,14.784z"/>
</g>
</svg>
