<?xml version="1.0" encoding="utf-8"?>
<!-- Generator: Adobe Illustrator 17.0.0, SVG Export Plug-In . SVG Version: 6.00 Build 0)  -->
<!DOCTYPE svg PUBLIC "-//W3C//DTD SVG 1.1//EN" "http://www.w3.org/Graphics/SVG/1.1/DTD/svg11.dtd">
<svg version="1.1" id="Capa_1" xmlns="http://www.w3.org/2000/svg" xmlns:xlink="http://www.w3.org/1999/xlink" x="0px" y="0px"
	 width="17.992px" height="17.992px" viewBox="0 0 17.992 17.992" enable-background="new 0 0 17.992 17.992" xml:space="preserve">
<g>
	<path fill="#FFFFFF" d="M17.992,8.996c0,4.97-4.026,8.996-8.996,8.996S0,13.966,0,8.996S4.026,0,8.996,0S17.992,4.026,17.992,8.996
		z M16.707,8.996c0-0.01,0-0.02,0-0.03l-1.024,0.894l-2.41-2.249l0.632-3.243l1.345,0.12c-0.954-1.315-2.319-2.329-3.905-2.831
		l0.532,1.245L8.996,4.498L6.115,2.902l0.532-1.245C5.06,2.159,3.695,3.173,2.741,4.488l1.355-0.12L4.719,7.61l-2.41,2.249
		L1.285,8.966c0,0.01,0,0.02,0,0.03c0,1.707,0.552,3.273,1.496,4.558l0.301-1.325l3.273,0.402l1.396,2.992l-1.165,0.693
		c0.753,0.251,1.566,0.392,2.41,0.392s1.657-0.141,2.41-0.392l-1.165-0.693l1.396-2.992l3.273-0.402l0.301,1.325
		C16.155,12.269,16.707,10.703,16.707,8.996z M8.996,6.104l2.881,2.088l-1.094,3.374H7.219L6.115,8.193L8.996,6.104z"/>
</g>
</svg>
