<?xml version="1.0" encoding="utf-8"?>
<!-- Generator: Adobe Illustrator 17.0.0, SVG Export Plug-In . SVG Version: 6.00 Build 0)  -->
<!DOCTYPE svg PUBLIC "-//W3C//DTD SVG 1.1//EN" "http://www.w3.org/Graphics/SVG/1.1/DTD/svg11.dtd">
<svg version="1.1" id="Capa_1" xmlns="http://www.w3.org/2000/svg" xmlns:xlink="http://www.w3.org/1999/xlink" x="0px" y="0px"
	 width="17.992px" height="17.992px" viewBox="0 0 17.992 17.992" enable-background="new 0 0 17.992 17.992" xml:space="preserve">
<g>
	<path fill="#FFFFFF" d="M5.571,8.965c-1.002,0.031-1.822,0.427-2.459,1.187H1.868c-0.507,0-0.934-0.125-1.281-0.376
		C0.24,9.526,0.067,9.16,0.067,8.678c0-2.184,0.383-3.276,1.151-3.276c0.037,0,0.172,0.065,0.404,0.195
		c0.232,0.13,0.533,0.262,0.905,0.395c0.371,0.133,0.739,0.2,1.105,0.2c0.414,0,0.826-0.071,1.234-0.214
		C4.834,6.206,4.819,6.41,4.819,6.589C4.819,7.45,5.07,8.241,5.571,8.965z M5.311,1.346C5.775,1.81,6.007,2.37,6.007,3.025
		c0,0.656-0.232,1.216-0.696,1.68C4.847,5.169,4.287,5.401,3.631,5.401s-1.216-0.232-1.68-0.696
		c-0.464-0.464-0.696-1.024-0.696-1.68c0-0.655,0.232-1.215,0.696-1.679S2.975,0.65,3.631,0.65S4.847,0.882,5.311,1.346z
		 M15.51,14.877c0,0.742-0.226,1.328-0.676,1.758c-0.452,0.431-1.052,0.645-1.801,0.645H4.921c-0.749,0-1.349-0.214-1.8-0.645
		c-0.452-0.43-0.677-1.016-0.677-1.758c0-0.328,0.01-0.648,0.032-0.961c0.022-0.313,0.065-0.65,0.13-1.012
		c0.065-0.362,0.147-0.697,0.246-1.007s0.232-0.611,0.399-0.905c0.167-0.294,0.359-0.545,0.575-0.752
		c0.217-0.207,0.481-0.373,0.793-0.497C4.932,9.62,5.277,9.559,5.654,9.559c0.062,0,0.195,0.066,0.399,0.199
		c0.204,0.134,0.43,0.282,0.677,0.445c0.247,0.164,0.578,0.313,0.993,0.445c0.414,0.134,0.832,0.2,1.253,0.2
		c0.421,0,0.838-0.066,1.253-0.2c0.415-0.133,0.745-0.281,0.993-0.445c0.248-0.163,0.472-0.312,0.676-0.445
		c0.205-0.133,0.338-0.199,0.399-0.199c0.378,0,0.722,0.061,1.034,0.185s0.578,0.289,0.794,0.497
		c0.216,0.207,0.409,0.458,0.574,0.752c0.167,0.294,0.301,0.595,0.399,0.905c0.1,0.31,0.181,0.645,0.246,1.007
		c0.067,0.362,0.108,0.699,0.132,1.012C15.5,14.229,15.51,14.548,15.51,14.877z M11.496,4.07c0.696,0.696,1.044,1.536,1.044,2.52
		s-0.348,1.824-1.044,2.52c-0.696,0.696-1.536,1.043-2.52,1.043s-1.823-0.347-2.52-1.043c-0.696-0.696-1.044-1.536-1.044-2.52
		s0.348-1.823,1.044-2.52s1.536-1.044,2.52-1.044S10.8,3.373,11.496,4.07z M16.002,1.346c0.464,0.464,0.696,1.024,0.696,1.679
		c0,0.656-0.232,1.216-0.696,1.68c-0.464,0.464-1.025,0.696-1.679,0.696c-0.657,0-1.215-0.232-1.679-0.696
		c-0.464-0.464-0.696-1.024-0.696-1.68c0-0.655,0.232-1.215,0.696-1.679c0.464-0.464,1.023-0.696,1.679-0.696
		C14.977,0.65,15.538,0.882,16.002,1.346z M17.886,8.678c0,0.483-0.173,0.848-0.519,1.099c-0.346,0.251-0.773,0.376-1.28,0.376
		h-1.245c-0.637-0.76-1.457-1.156-2.458-1.187c0.501-0.724,0.751-1.516,0.751-2.376c0-0.179-0.016-0.383-0.047-0.613
		c0.409,0.143,0.82,0.214,1.235,0.214c0.366,0,0.734-0.067,1.105-0.2c0.37-0.133,0.673-0.264,0.905-0.395
		c0.232-0.13,0.366-0.195,0.403-0.195C17.502,5.401,17.886,6.493,17.886,8.678z"/>
</g>
</svg>
