<?xml version="1.0" encoding="utf-8"?>
<!-- Generator: Adobe Illustrator 17.0.0, SVG Export Plug-In . SVG Version: 6.00 Build 0)  -->
<!DOCTYPE svg PUBLIC "-//W3C//DTD SVG 1.1//EN" "http://www.w3.org/Graphics/SVG/1.1/DTD/svg11.dtd">
<svg version="1.1" id="Capa_1" xmlns="http://www.w3.org/2000/svg" xmlns:xlink="http://www.w3.org/1999/xlink" x="0px" y="0px"
	 width="330px" height="144px" viewBox="0 0 330 144" enable-background="new 0 0 330 144" xml:space="preserve">
<path fill="#734D9E" d="M144.291,77.196l-2.392,2.359c-1.507-1.592-3.266-2.395-5.275-2.395c-1.751,0-3.217,0.583-4.402,1.744
	c-1.18,1.162-1.777,2.57-1.777,4.23c0,1.722,0.616,3.173,1.842,4.372c1.228,1.19,2.743,1.788,4.543,1.788
	c1.173,0,2.159-0.244,2.959-0.736c0.804-0.491,1.454-1.266,1.947-2.31h-5.156v-3.187h8.954l0.026,0.754
	c0,1.559-0.406,3.028-1.21,4.427c-0.809,1.392-1.853,2.462-3.137,3.191c-1.283,0.737-2.785,1.102-4.512,1.102
	c-1.848,0-3.495-0.402-4.941-1.205c-1.448-0.8-2.59-1.945-3.436-3.428c-0.839-1.484-1.264-3.082-1.264-4.803
	c0-2.353,0.777-4.402,2.335-6.145c1.848-2.074,4.249-3.11,7.209-3.11c1.551,0,2.999,0.287,4.347,0.86
	C142.089,75.191,143.2,76.024,144.291,77.196"/>
<polyline fill="#734D9E" points="147.195,74.299 156.903,74.299 156.903,77.611 150.556,77.611 150.556,80.825 156.903,80.825 
	156.903,84.079 150.556,84.079 150.556,88.766 156.903,88.766 156.903,92.093 147.195,92.093 "/>
<polyline fill="#734D9E" points="159.087,74.299 162.332,74.299 169.945,86.007 169.945,74.299 173.336,74.299 173.336,92.093 
	170.079,92.093 162.472,80.412 162.472,92.093 159.087,92.093 "/>
<polyline fill="#734D9E" points="175.149,74.299 184.984,74.299 184.984,77.637 181.744,77.637 181.744,92.093 178.302,92.093 
	178.302,77.637 175.149,77.637 "/>
<polyline fill="#734D9E" points="186.827,74.299 196.535,74.299 196.535,77.611 190.187,77.611 190.187,80.825 196.535,80.825 
	196.535,84.079 190.187,84.079 190.187,88.766 196.535,88.766 196.535,92.093 186.827,92.093 "/>
<path fill="#734D9E" d="M211.327,92.298c-1.808-0.018-3.617-0.935-5.429-2.76c-1.844-1.83-2.761-4.04-2.761-6.644
	c0-2.598,0.917-4.809,2.752-6.645c1.832-1.837,4.05-2.755,6.646-2.755c2.597,0,4.812,0.918,6.658,2.755
	c1.834,1.836,2.753,4.047,2.753,6.645c0,2.603-0.919,4.813-2.753,6.644c-1.326,1.331-2.567,2.117-3.716,2.359l1.521,0.82
	c0.607,0.321,1.027,0.517,1.257,0.584c0.134,0.037,0.256,0.062,0.378,0.062c0.226,0,0.443-0.062,0.657-0.185
	c0.326-0.187,0.54-0.461,0.639-0.821c0.03-0.096,0.054-0.279,0.072-0.545h1.549c-0.023,0.414-0.074,0.729-0.131,0.955
	c-0.228,0.766-0.691,1.35-1.383,1.744c-0.439,0.249-0.894,0.371-1.379,0.371c-0.269,0-0.534-0.037-0.809-0.116
	c-0.469-0.133-1.126-0.454-1.965-0.984c-0.73-0.396-1.245-0.633-1.543-0.712c-0.195-0.048-0.383-0.073-0.57-0.073
	c-0.322,0-0.634,0.085-0.932,0.256c-0.488,0.272-0.796,0.676-0.942,1.211c-0.024,0.072-0.049,0.224-0.072,0.455h-1.539
	c0.031-0.383,0.081-0.682,0.133-0.881c0.257-0.937,0.817-1.648,1.674-2.13 M212.536,75.045c-2.157,0-4.007,0.766-5.539,2.3
	c-1.529,1.529-2.296,3.384-2.296,5.55c0,2.172,0.767,4.024,2.296,5.562c1.532,1.537,3.382,2.303,5.539,2.303
	c2.17,0,4.02-0.766,5.556-2.303c1.534-1.538,2.299-3.391,2.299-5.562c0-2.166-0.765-4.021-2.299-5.55
	C216.556,75.811,214.706,75.045,212.536,75.045"/>
<path fill="#734D9E" d="M234.41,73.751h1.538v13.076c-0.193,1.435-0.785,2.651-1.776,3.641c-1.186,1.188-2.618,1.782-4.299,1.782
	c-1.682,0-3.118-0.595-4.303-1.788c-1.185-1.192-1.781-2.62-1.781-4.283V73.751h1.55v12.428c0,1.237,0.443,2.302,1.33,3.188
	c0.888,0.889,1.959,1.332,3.204,1.332c1.261,0,2.329-0.443,3.212-1.332c0.888-0.887,1.325-1.951,1.325-3.188"/>
<polyline fill="#734D9E" points="248.022,73.751 248.022,75.289 240.125,75.289 240.125,82.158 248.022,82.158 248.022,83.686 
	240.125,83.686 240.125,90.555 248.022,90.555 248.022,92.093 238.586,92.093 238.586,73.751 "/>
<path fill="#734D9E" d="M268.283,88.633l1.148,1.025c-1.927,1.76-4.102,2.64-6.528,2.64c-2.591,0-4.802-0.917-6.634-2.739
	c-1.826-1.834-2.745-4.037-2.745-6.641c0-2.583,0.919-4.796,2.745-6.626c1.832-1.829,4.043-2.748,6.634-2.748
	c2.427,0,4.602,0.875,6.528,2.626l-1.148,1.052c-1.599-1.418-3.392-2.128-5.38-2.128c-2.158,0-3.993,0.768-5.523,2.294
	c-1.528,1.523-2.293,3.372-2.293,5.53c0,2.171,0.765,4.02,2.293,5.551c1.53,1.525,3.365,2.291,5.523,2.291
	C264.892,90.76,266.685,90.048,268.283,88.633"/>
<path fill="#734D9E" d="M283.083,73.751h1.536v13.076c-0.195,1.435-0.79,2.651-1.78,3.641c-1.186,1.188-2.616,1.782-4.292,1.782
	c-1.69,0-3.125-0.595-4.309-1.788c-1.188-1.192-1.777-2.62-1.777-4.283V73.751h1.544v12.428c0,1.237,0.443,2.302,1.33,3.188
	c0.89,0.889,1.961,1.332,3.212,1.332c1.258,0,2.327-0.443,3.208-1.332c0.885-0.887,1.328-1.951,1.328-3.188"/>
<rect x="288.493" y="73.751" fill="#734D9E" width="1.532" height="18.342"/>
<path fill="#734D9E" d="M295.435,73.774h-0.192c3.007,0,5.341,0.833,7.002,2.505c1.831,1.835,2.749,4.056,2.749,6.639
	c0,2.602-0.918,4.816-2.749,6.643c-1.661,1.669-3.995,2.506-7.002,2.506h0.192v0.026h-1.538V73.751h1.538 M295.435,75.325V90.52
	c2.442,0,4.346-0.689,5.708-2.057c1.526-1.527,2.286-3.374,2.286-5.545c0-2.158-0.76-4.007-2.286-5.538
	C299.78,76.012,297.877,75.325,295.435,75.325"/>
<path fill="#734D9E" d="M314.137,85.264h-5.795l-2.481,6.828h-1.635l7.016-19.26l7.01,19.26h-1.637 M313.576,83.733l-2.335-6.428
	l-2.336,6.428H313.576z"/>
<path fill="#734D9E" d="M139.226,116.451h-9.304l-3.988,10.962h-2.621l11.268-30.932l11.252,30.932h-2.627 M138.33,113.989
	l-3.749-10.316l-3.746,10.316H138.33z"/>
<polyline fill="#734D9E" points="157.677,127.413 157.677,97.96 160.144,97.96 160.144,124.943 171.214,124.943 171.214,127.413 "/>
<path fill="#734D9E" d="M189.849,116.451h-9.304l-3.986,10.962h-2.623l11.268-30.932l11.253,30.932h-2.628 M188.956,113.989
	l-3.753-10.316l-3.745,10.316H188.956z"/>
<path fill="#734D9E" d="M230.253,103.496l-3.832,3.787c-2.426-2.564-5.252-3.848-8.48-3.848c-2.815,0-5.166,0.936-7.062,2.804
	c-1.905,1.86-2.852,4.13-2.852,6.796c0,2.761,0.986,5.095,2.956,7.016c1.969,1.916,4.4,2.876,7.294,2.876
	c1.879,0,3.466-0.396,4.754-1.185c1.289-0.791,2.33-2.031,3.12-3.716h-8.274v-5.107h14.375l0.038,1.204
	c0,2.5-0.644,4.871-1.938,7.113c-1.296,2.238-2.974,3.945-5.033,5.126c-2.062,1.179-4.476,1.768-7.248,1.768
	c-2.967,0-5.611-0.644-7.935-1.934c-2.327-1.289-4.163-3.125-5.52-5.507c-1.349-2.383-2.031-4.953-2.031-7.716
	c0-3.78,1.255-7.069,3.751-9.866c2.969-3.324,6.83-4.993,11.582-4.993c2.487,0,4.811,0.458,6.974,1.382
	C226.713,100.269,228.502,101.606,230.253,103.496"/>
<polyline fill="#734D9E" points="235.712,98.835 251.31,98.835 251.31,104.16 241.108,104.16 241.108,109.328 251.31,109.328 
	251.31,114.549 241.108,114.549 241.108,122.07 251.31,122.07 251.31,127.413 235.712,127.413 "/>
<polyline fill="#734D9E" points="255.609,98.835 260.826,98.835 273.05,117.637 273.05,98.835 278.492,98.835 278.492,127.413 
	273.255,127.413 261.051,108.664 261.051,127.413 255.609,127.413 "/>
<polyline fill="#734D9E" points="282.208,98.835 298.001,98.835 298.001,104.194 292.79,104.194 292.79,127.413 287.276,127.413 
	287.276,104.194 282.208,104.194 "/>
<polyline fill="#734D9E" points="301.745,98.835 317.346,98.835 317.346,104.16 307.15,104.16 307.15,109.328 317.346,109.328 
	317.346,114.549 307.15,114.549 307.15,122.07 317.346,122.07 317.346,127.413 301.745,127.413 "/>
<polyline fill="#E90E8B" points="137.984,51.962 137.984,53.426 131.521,53.426 131.521,59.969 137.984,59.969 137.984,61.422 
	131.521,61.422 131.521,69.429 130.056,69.429 130.056,51.962 "/>
<path fill="#E90E8B" d="M150.794,51.962h1.466v12.457c-0.183,1.367-0.748,2.522-1.694,3.466c-1.128,1.13-2.492,1.695-4.088,1.695
	c-1.604,0-2.975-0.565-4.103-1.704c-1.132-1.129-1.694-2.49-1.694-4.077V51.962h1.473v11.837c0,1.18,0.425,2.195,1.268,3.039
	c0.846,0.844,1.863,1.264,3.056,1.264c1.198,0,2.214-0.42,3.056-1.264c0.842-0.844,1.26-1.859,1.26-3.039"/>
<polyline fill="#E90E8B" points="155.717,51.962 157.165,51.962 165.473,66.353 165.473,51.962 166.935,51.962 166.935,69.429 
	165.588,69.429 157.176,54.893 157.176,69.429 155.717,69.429 "/>
<path fill="#E90E8B" d="M171.853,51.986h-0.183c2.864,0,5.087,0.797,6.669,2.383c1.744,1.752,2.618,3.862,2.618,6.328
	c0,2.475-0.874,4.578-2.618,6.325c-1.582,1.591-3.805,2.382-6.669,2.382h0.183v0.025h-1.461V51.962h1.461 M171.853,53.464v14.468
	c2.328,0,4.14-0.651,5.44-1.957c1.453-1.452,2.176-3.21,2.176-5.278c0-2.06-0.723-3.817-2.176-5.275
	C175.993,54.114,174.182,53.464,171.853,53.464"/>
<path fill="#E90E8B" d="M190.607,62.929h-5.518l-2.361,6.5h-1.557l6.684-18.342l6.67,18.342h-1.554 M190.078,61.471l-2.222-6.123
	l-2.223,6.123H190.078z"/>
<path fill="#E90E8B" d="M208.709,66.134l1.095,0.977c-1.834,1.679-3.909,2.511-6.223,2.511c-2.463,0-4.57-0.87-6.31-2.609
	c-1.745-1.738-2.614-3.841-2.614-6.316c0-2.466,0.869-4.57,2.614-6.316c1.739-1.738,3.847-2.613,6.31-2.613
	c2.313,0,4.389,0.833,6.223,2.499l-1.095,1.004c-1.52-1.351-3.229-2.028-5.128-2.028c-2.049,0-3.804,0.724-5.26,2.183
	c-1.451,1.454-2.183,3.211-2.183,5.271c0,2.068,0.731,3.826,2.183,5.284c1.456,1.452,3.211,2.184,5.26,2.184
	C205.48,68.165,207.189,67.488,208.709,66.134"/>
<rect x="212.913" y="51.962" fill="#E90E8B" width="1.466" height="17.467"/>
<path fill="#E90E8B" d="M231.651,54.345c1.751,1.747,2.626,3.855,2.626,6.328c0,2.475-0.875,4.584-2.626,6.329
	c-1.753,1.751-3.867,2.621-6.337,2.621c-2.475,0-4.584-0.87-6.336-2.621c-1.743-1.745-2.617-3.854-2.617-6.329
	c0-2.473,0.874-4.581,2.617-6.328c1.752-1.75,3.861-2.62,6.336-2.62C227.784,51.725,229.898,52.595,231.651,54.345 M225.314,53.197
	c-2.061,0-3.819,0.728-5.277,2.189c-1.461,1.458-2.191,3.223-2.191,5.287c0,2.068,0.73,3.832,2.191,5.296
	c1.458,1.458,3.217,2.197,5.277,2.197c2.066,0,3.824-0.739,5.289-2.197c1.457-1.464,2.187-3.227,2.187-5.296
	c0-2.064-0.73-3.829-2.187-5.287C229.139,53.925,227.381,53.197,225.314,53.197 M228.389,48.107l-3.263,2.488h-1.53l2.167-2.488
	H228.389z"/>
<polyline fill="#E90E8B" points="236.027,51.962 237.478,51.962 245.783,66.353 245.783,51.962 247.25,51.962 247.25,69.429 
	245.899,69.429 237.492,54.893 237.492,69.429 236.027,69.429 "/>
<g>
	<path fill="#734D9E" d="M110.239,58.334c-0.067-0.084-0.146-0.17-0.215-0.255c0.093,7.123,0.003,14.507-0.418,21.316
		c-0.001,0.026-0.003,0.054-0.005,0.08c-0.029,0.471-0.06,0.938-0.093,1.403c-0.005,0.078-0.011,0.156-0.017,0.235
		c-0.03,0.42-0.061,0.838-0.094,1.253c-0.009,0.118-0.019,0.236-0.028,0.354c-0.031,0.375-0.062,0.748-0.095,1.118
		c-0.014,0.156-0.028,0.312-0.042,0.468c-0.031,0.333-0.062,0.665-0.095,0.994c-0.018,0.187-0.038,0.371-0.057,0.557
		c-0.031,0.297-0.062,0.592-0.094,0.885c-0.023,0.211-0.047,0.419-0.072,0.628c-0.031,0.269-0.062,0.536-0.095,0.802
		c-0.027,0.222-0.056,0.441-0.084,0.66c-0.032,0.247-0.064,0.494-0.097,0.738c-0.033,0.235-0.066,0.468-0.1,0.701
		c-0.032,0.221-0.063,0.442-0.097,0.66c-0.037,0.243-0.075,0.482-0.114,0.722c-0.033,0.207-0.066,0.414-0.101,0.617
		c-0.041,0.244-0.083,0.483-0.126,0.724c-0.034,0.189-0.067,0.38-0.102,0.566c-0.046,0.245-0.094,0.485-0.141,0.725
		c-0.035,0.178-0.07,0.357-0.106,0.532c-0.05,0.241-0.102,0.476-0.154,0.712c-0.036,0.164-0.072,0.331-0.109,0.493
		c-0.054,0.235-0.11,0.464-0.167,0.694c-0.038,0.156-0.076,0.314-0.115,0.468c-0.058,0.228-0.119,0.446-0.179,0.667
		c-0.041,0.147-0.08,0.297-0.121,0.44c-0.062,0.216-0.126,0.424-0.189,0.633c-0.043,0.142-0.085,0.286-0.129,0.424
		c-0.066,0.207-0.134,0.404-0.203,0.604c-0.044,0.13-0.088,0.265-0.134,0.393c-0.07,0.196-0.144,0.383-0.216,0.571
		c-0.047,0.122-0.093,0.249-0.141,0.368c-0.071,0.176-0.145,0.342-0.219,0.511c-0.053,0.122-0.104,0.249-0.158,0.367
		c-0.063,0.138-0.129,0.266-0.194,0.398c-0.066,0.136-0.13,0.277-0.198,0.407c-8.766,16.81-29.5,23.333-46.315,14.567
		c-16.809-8.774-23.331-29.504-14.565-46.32c0.141-0.27,0.295-0.544,0.459-0.822c0.057-0.097,0.123-0.196,0.183-0.294
		c0.111-0.18,0.22-0.359,0.34-0.542c0.09-0.137,0.19-0.277,0.285-0.416c0.1-0.146,0.197-0.291,0.303-0.438
		c0.114-0.159,0.236-0.321,0.357-0.481c0.098-0.13,0.192-0.26,0.293-0.392c0.134-0.173,0.275-0.349,0.415-0.524
		c0.098-0.122,0.193-0.243,0.294-0.366c0.153-0.187,0.314-0.375,0.475-0.565c0.096-0.113,0.191-0.225,0.29-0.338
		c0.172-0.199,0.351-0.399,0.531-0.599c0.096-0.107,0.191-0.213,0.288-0.32c0.189-0.208,0.385-0.418,0.583-0.628
		c0.096-0.102,0.192-0.204,0.29-0.307c0.205-0.214,0.414-0.43,0.626-0.646c0.099-0.101,0.198-0.202,0.299-0.303
		c0.218-0.22,0.441-0.442,0.668-0.664c0.1-0.098,0.2-0.197,0.302-0.295c0.233-0.226,0.469-0.453,0.71-0.682
		c0.101-0.096,0.204-0.193,0.307-0.29c0.247-0.232,0.496-0.465,0.75-0.698c0.101-0.093,0.203-0.186,0.306-0.28
		c0.26-0.238,0.523-0.476,0.79-0.715c0.102-0.091,0.206-0.183,0.309-0.275c0.271-0.24,0.543-0.481,0.82-0.723
		c0.108-0.095,0.218-0.189,0.328-0.284c0.276-0.239,0.554-0.479,0.836-0.72c0.118-0.1,0.237-0.201,0.356-0.301
		c0.278-0.235,0.556-0.47,0.839-0.706c0.135-0.113,0.273-0.226,0.409-0.339c0.271-0.224,0.541-0.448,0.816-0.672
		c0.17-0.139,0.344-0.279,0.517-0.419c0.243-0.197,0.485-0.394,0.731-0.591c0.252-0.203,0.509-0.405,0.765-0.608
		c0.172-0.136,0.341-0.272,0.514-0.408c6.28-4.947,13.418-9.951,20.192-14.452C52.741,24.39,13.768,11.144,13.749,11.138
		c-0.017,0,9.021,84.719,24.849,104.499c15.823,19.786,44.688,22.998,64.471,7.172C122.856,106.987,126.066,78.115,110.239,58.334z"
		/>
	<path fill="#C91682" d="M110.024,58.079c-0.244-18.613-1.724-35.428-1.726-35.437c-0.001-0.007-12.457,7.151-26.48,16.469
		C94.388,45.475,105.102,52.114,110.024,58.079z"/>
	<path fill="#C91682" d="M108.538,90.272c-0.032,0.221-0.063,0.442-0.097,0.66C108.475,90.714,108.506,90.492,108.538,90.272z"/>
	<path fill="#C91682" d="M47.649,66.375c0.096-0.112,0.191-0.225,0.29-0.338C47.84,66.15,47.745,66.262,47.649,66.375z"/>
	<path fill="#C91682" d="M46.88,67.306c0.098-0.122,0.193-0.243,0.294-0.366C47.073,67.063,46.977,67.184,46.88,67.306z"/>
	<path fill="#C91682" d="M46.171,68.221c0.097-0.13,0.192-0.26,0.293-0.392C46.363,67.961,46.269,68.091,46.171,68.221z"/>
	<path fill="#C91682" d="M48.47,65.438c0.096-0.107,0.191-0.213,0.288-0.32C48.66,65.224,48.565,65.331,48.47,65.438z"/>
	<path fill="#C91682" d="M108.914,87.37c-0.031,0.269-0.062,0.536-0.095,0.802C108.852,87.906,108.883,87.639,108.914,87.37z"/>
	<path fill="#C91682" d="M108.328,91.653c-0.033,0.207-0.066,0.414-0.101,0.617C108.262,92.067,108.294,91.86,108.328,91.653z"/>
	<path fill="#C91682" d="M50.256,63.536c0.099-0.101,0.198-0.202,0.299-0.303C50.455,63.334,50.355,63.435,50.256,63.536z"/>
	<path fill="#C91682" d="M108.735,88.832c-0.032,0.247-0.064,0.494-0.097,0.738C108.671,89.326,108.703,89.079,108.735,88.832z"/>
	<path fill="#C91682" d="M49.34,64.49c0.096-0.102,0.192-0.204,0.29-0.307C49.532,64.286,49.436,64.388,49.34,64.49z"/>
	<path fill="#C91682" d="M107.027,97.852c-0.041,0.147-0.08,0.297-0.121,0.44C106.947,98.148,106.986,97.999,107.027,97.852z"/>
	<path fill="#C91682" d="M106.385,99.952c-0.044,0.13-0.088,0.265-0.134,0.393C106.297,100.217,106.34,100.082,106.385,99.952z"/>
	<path fill="#C91682" d="M107.597,95.529c-0.036,0.164-0.072,0.331-0.109,0.493C107.525,95.86,107.561,95.693,107.597,95.529z"/>
	<path fill="#C91682" d="M51.223,62.569c0.1-0.098,0.201-0.197,0.302-0.295C51.423,62.372,51.323,62.471,51.223,62.569z"/>
	<path fill="#C91682" d="M106.717,98.925c-0.043,0.142-0.085,0.286-0.129,0.424C106.632,99.211,106.673,99.066,106.717,98.925z"/>
	<path fill="#C91682" d="M107.321,96.717c-0.038,0.156-0.076,0.314-0.115,0.468C107.245,97.031,107.283,96.873,107.321,96.717z"/>
	<path fill="#C91682" d="M44.888,70.099c0.11-0.18,0.22-0.359,0.34-0.542C45.107,69.74,44.998,69.919,44.888,70.099z"/>
	<path fill="#C91682" d="M107.857,94.285c-0.035,0.178-0.07,0.357-0.106,0.532C107.788,94.643,107.822,94.463,107.857,94.285z"/>
	<path fill="#C91682" d="M45.512,69.141c0.1-0.146,0.197-0.291,0.303-0.438C45.709,68.85,45.612,68.995,45.512,69.141z"/>
	<path fill="#C91682" d="M108.101,92.994c-0.034,0.189-0.067,0.38-0.102,0.566C108.033,93.374,108.067,93.184,108.101,92.994z"/>
	<path fill="#C91682" d="M105.676,101.795c-0.053,0.122-0.104,0.249-0.158,0.367C105.572,102.044,105.623,101.917,105.676,101.795z"
		/>
	<path fill="#C91682" d="M106.035,100.916c-0.047,0.122-0.093,0.249-0.141,0.368C105.942,101.165,105.988,101.038,106.035,100.916z"
		/>
	<path fill="#C91682" d="M109.369,82.721c-0.031,0.375-0.062,0.748-0.095,1.118C109.307,83.469,109.338,83.096,109.369,82.721z"/>
	<path fill="#C91682" d="M56.678,57.607c0.118-0.1,0.237-0.201,0.356-0.301C56.915,57.406,56.796,57.507,56.678,57.607z"/>
	<path fill="#C91682" d="M58.81,117.535c16.815,8.766,37.549,2.242,46.315-14.567c0.068-0.13,0.132-0.271,0.198-0.407
		c-0.066,0.136-0.13,0.276-0.198,0.406C96.36,119.776,75.625,126.3,58.81,117.535z"/>
	<path fill="#C91682" d="M109.601,79.476c-0.029,0.471-0.06,0.938-0.093,1.403C109.54,80.414,109.571,79.946,109.601,79.476z"/>
	<path fill="#C91682" d="M55.515,58.611c0.108-0.095,0.218-0.189,0.328-0.284C55.733,58.421,55.623,58.516,55.515,58.611z"/>
	<path fill="#C91682" d="M44.246,71.214c0.141-0.27,0.294-0.544,0.458-0.821C44.54,70.67,44.386,70.945,44.246,71.214
		c-8.767,16.817-2.245,37.548,14.564,46.321C42.001,108.761,35.48,88.031,44.246,71.214z"/>
	<path fill="#C91682" d="M60.346,54.579c0.252-0.203,0.509-0.405,0.765-0.608C60.855,54.173,60.599,54.376,60.346,54.579z"/>
	<path fill="#C91682" d="M57.873,56.6c0.135-0.113,0.273-0.226,0.409-0.339C58.146,56.374,58.009,56.487,57.873,56.6z"/>
	<path fill="#C91682" d="M59.099,55.588c0.17-0.139,0.344-0.279,0.517-0.419C59.443,55.309,59.269,55.449,59.099,55.588z"/>
	<path fill="#C91682" d="M109.491,81.114c-0.03,0.42-0.061,0.838-0.094,1.253C109.43,81.952,109.461,81.534,109.491,81.114z"/>
	<path fill="#C91682" d="M81.818,39.116c12.575,6.366,23.289,13.003,28.201,18.975c0.094,7.119,0.007,14.501-0.414,21.305
		c0.422-6.81,0.511-14.193,0.418-21.316c-4.921-5.965-15.636-12.604-28.206-18.968c-6.774,4.501-13.913,9.505-20.192,14.452
		C67.904,48.619,75.043,43.616,81.818,39.116z"/>
	<path fill="#C91682" d="M109.08,85.857c-0.031,0.297-0.062,0.592-0.094,0.885C109.018,86.449,109.049,86.154,109.08,85.857z"/>
	<path fill="#C91682" d="M109.231,84.307c-0.031,0.333-0.062,0.665-0.095,0.994C109.169,84.972,109.201,84.64,109.231,84.307z"/>
	<path fill="#C91682" d="M53.29,60.604c0.101-0.093,0.203-0.186,0.306-0.28C53.493,60.418,53.391,60.511,53.29,60.604z"/>
	<path fill="#C91682" d="M54.386,59.609c0.102-0.091,0.206-0.183,0.309-0.275C54.591,59.426,54.488,59.518,54.386,59.609z"/>
	<path fill="#C91682" d="M52.234,61.592c0.101-0.096,0.204-0.193,0.307-0.29C52.437,61.399,52.335,61.496,52.234,61.592z"/>
	<path fill="#E90E8B" d="M109.508,80.879c-0.005,0.078-0.011,0.157-0.017,0.235C109.497,81.035,109.502,80.957,109.508,80.879z"/>
	<path fill="#E90E8B" d="M107.751,94.817c-0.05,0.241-0.102,0.476-0.154,0.712C107.649,95.293,107.701,95.059,107.751,94.817z"/>
	<path fill="#E90E8B" d="M107.488,96.023c-0.054,0.235-0.11,0.464-0.167,0.694C107.377,96.486,107.434,96.258,107.488,96.023z"/>
	<path fill="#E90E8B" d="M109.605,79.396c-0.001,0.026-0.003,0.054-0.005,0.08C109.602,79.449,109.604,79.422,109.605,79.396z"/>
	<path fill="#E90E8B" d="M109.137,85.301c-0.018,0.187-0.038,0.372-0.057,0.557C109.099,85.672,109.118,85.487,109.137,85.301z"/>
	<path fill="#E90E8B" d="M108.986,86.742c-0.023,0.211-0.047,0.419-0.072,0.628C108.938,87.161,108.962,86.953,108.986,86.742z"/>
	<path fill="#E90E8B" d="M108.819,88.172c-0.027,0.222-0.056,0.441-0.084,0.66C108.763,88.613,108.791,88.394,108.819,88.172z"/>
	<path fill="#E90E8B" d="M108.638,89.57c-0.033,0.235-0.066,0.468-0.1,0.701C108.572,90.038,108.605,89.806,108.638,89.57z"/>
	<path fill="#E90E8B" d="M109.273,83.839c-0.014,0.156-0.028,0.312-0.042,0.468C109.246,84.15,109.26,83.995,109.273,83.839z"/>
	<path fill="#E90E8B" d="M107.998,93.561c-0.046,0.245-0.093,0.485-0.141,0.725C107.905,94.046,107.953,93.806,107.998,93.561z"/>
	<path fill="#E90E8B" d="M109.397,82.367c-0.009,0.118-0.019,0.236-0.028,0.354C109.378,82.604,109.388,82.485,109.397,82.367z"/>
	<path fill="#E90E8B" d="M108.441,90.932c-0.037,0.243-0.075,0.482-0.114,0.722C108.366,91.414,108.404,91.175,108.441,90.932z"/>
	<path fill="#E90E8B" d="M108.227,92.271c-0.041,0.244-0.083,0.483-0.126,0.724C108.144,92.754,108.186,92.515,108.227,92.271z"/>
	<path fill="#E90E8B" d="M52.54,61.302c0.247-0.232,0.496-0.465,0.75-0.698C53.037,60.837,52.787,61.07,52.54,61.302z"/>
	<path fill="#E90E8B" d="M53.596,60.324c0.26-0.238,0.523-0.476,0.79-0.715C54.118,59.848,53.856,60.086,53.596,60.324z"/>
	<path fill="#E90E8B" d="M51.524,62.273c0.233-0.226,0.469-0.453,0.71-0.682C51.994,61.82,51.757,62.047,51.524,62.273z"/>
	<path fill="#E90E8B" d="M50.555,63.233c0.218-0.22,0.441-0.442,0.668-0.664C50.996,62.791,50.773,63.013,50.555,63.233z"/>
	<path fill="#E90E8B" d="M54.694,59.334c0.271-0.24,0.543-0.481,0.82-0.723C55.237,58.853,54.965,59.094,54.694,59.334z"/>
	<path fill="#E90E8B" d="M49.63,64.183c0.205-0.214,0.414-0.43,0.626-0.646C50.044,63.752,49.835,63.968,49.63,64.183z"/>
	<path fill="#E90E8B" d="M61.111,53.971c0.171-0.136,0.341-0.272,0.514-0.408C61.452,53.698,61.283,53.835,61.111,53.971z"/>
	<path fill="#E90E8B" d="M59.615,55.17c0.243-0.197,0.485-0.394,0.731-0.591C60.1,54.776,59.858,54.973,59.615,55.17z"/>
	<path fill="#E90E8B" d="M48.758,65.117c0.19-0.208,0.385-0.418,0.583-0.628C49.143,64.7,48.947,64.909,48.758,65.117z"/>
	<path fill="#E90E8B" d="M57.034,57.306c0.278-0.235,0.556-0.47,0.839-0.706C57.59,56.835,57.312,57.071,57.034,57.306z"/>
	<path fill="#E90E8B" d="M55.842,58.327c0.276-0.239,0.554-0.479,0.836-0.72C56.396,57.848,56.119,58.087,55.842,58.327z"/>
	<path fill="#E90E8B" d="M58.283,56.261c0.271-0.224,0.541-0.448,0.816-0.672C58.823,55.813,58.553,56.037,58.283,56.261z"/>
	<path fill="#E90E8B" d="M105.518,102.162c-0.063,0.138-0.129,0.266-0.194,0.398C105.388,102.428,105.455,102.3,105.518,102.162z"/>
	<path fill="#E90E8B" d="M106.251,100.345c-0.07,0.196-0.144,0.383-0.216,0.571C106.107,100.728,106.181,100.541,106.251,100.345z"
		/>
	<path fill="#E90E8B" d="M107.206,97.185c-0.058,0.228-0.119,0.446-0.179,0.667C107.087,97.631,107.147,97.412,107.206,97.185z"/>
	<path fill="#E90E8B" d="M105.894,101.284c-0.071,0.176-0.145,0.342-0.219,0.511C105.749,101.626,105.823,101.46,105.894,101.284z"
		/>
	<path fill="#E90E8B" d="M106.587,99.349c-0.066,0.207-0.134,0.404-0.203,0.604C106.453,99.753,106.521,99.556,106.587,99.349z"/>
	<path fill="#E90E8B" d="M106.906,98.292c-0.062,0.216-0.126,0.424-0.189,0.633C106.78,98.716,106.845,98.508,106.906,98.292z"/>
	<path fill="#E90E8B" d="M45.815,68.703c0.114-0.159,0.236-0.32,0.357-0.481C46.051,68.382,45.929,68.544,45.815,68.703z"/>
	<path fill="#E90E8B" d="M46.465,67.83c0.134-0.173,0.275-0.349,0.415-0.524C46.74,67.481,46.599,67.656,46.465,67.83z"/>
	<path fill="#E90E8B" d="M47.174,66.94c0.153-0.187,0.314-0.375,0.475-0.565C47.488,66.565,47.328,66.753,47.174,66.94z"/>
	<path fill="#E90E8B" d="M44.705,70.393c0.057-0.097,0.123-0.196,0.183-0.294C44.828,70.196,44.762,70.296,44.705,70.393z"/>
	<path fill="#E90E8B" d="M45.227,69.557c0.09-0.137,0.19-0.277,0.285-0.416C45.417,69.28,45.317,69.42,45.227,69.557z"/>
	<path fill="#E90E8B" d="M47.938,66.037c0.172-0.199,0.351-0.399,0.531-0.599C48.29,65.638,48.111,65.838,47.938,66.037z"/>
	<path fill="#E90E8B" d="M110.019,58.091c-4.912-5.972-15.626-12.609-28.201-18.975c-6.775,4.5-13.914,9.503-20.193,14.446
		c-0.173,0.136-0.343,0.272-0.514,0.408c-0.256,0.203-0.512,0.405-0.765,0.608c-0.246,0.197-0.488,0.394-0.731,0.591
		c-0.172,0.139-0.346,0.279-0.517,0.419c-0.275,0.225-0.545,0.449-0.816,0.672c-0.136,0.113-0.274,0.226-0.409,0.339
		c-0.283,0.236-0.561,0.471-0.839,0.706c-0.119,0.1-0.238,0.201-0.356,0.301c-0.282,0.241-0.56,0.481-0.836,0.72
		c-0.109,0.095-0.219,0.189-0.328,0.284c-0.277,0.242-0.55,0.483-0.82,0.723c-0.103,0.092-0.207,0.184-0.309,0.275
		c-0.267,0.239-0.53,0.477-0.79,0.715c-0.102,0.093-0.205,0.187-0.306,0.28c-0.253,0.233-0.503,0.466-0.75,0.698
		c-0.103,0.097-0.205,0.193-0.307,0.29c-0.24,0.229-0.477,0.456-0.71,0.682c-0.101,0.099-0.202,0.197-0.302,0.295
		c-0.227,0.222-0.449,0.444-0.668,0.664c-0.101,0.101-0.2,0.202-0.299,0.303c-0.212,0.216-0.421,0.432-0.626,0.646
		c-0.098,0.103-0.193,0.205-0.29,0.307c-0.198,0.21-0.393,0.42-0.583,0.628c-0.098,0.107-0.192,0.213-0.288,0.32
		c-0.181,0.2-0.359,0.4-0.531,0.599c-0.099,0.114-0.193,0.226-0.29,0.338c-0.161,0.19-0.321,0.378-0.475,0.565
		c-0.101,0.123-0.197,0.244-0.294,0.366c-0.14,0.175-0.281,0.35-0.415,0.524c-0.102,0.132-0.196,0.261-0.293,0.392
		c-0.12,0.161-0.243,0.322-0.357,0.481c-0.105,0.147-0.203,0.293-0.303,0.438c-0.095,0.139-0.194,0.279-0.285,0.416
		c-0.12,0.183-0.229,0.362-0.34,0.542c-0.06,0.098-0.126,0.197-0.183,0.294c-0.165,0.277-0.318,0.551-0.458,0.821
		c-8.766,16.817-2.245,37.547,14.564,46.321c16.815,8.765,37.55,2.241,46.315-14.568c0.068-0.13,0.132-0.271,0.198-0.406
		c0.065-0.133,0.131-0.261,0.194-0.398c0.054-0.118,0.105-0.245,0.158-0.367c0.073-0.169,0.147-0.335,0.219-0.511
		c0.048-0.119,0.093-0.246,0.141-0.368c0.072-0.188,0.146-0.375,0.216-0.571c0.046-0.128,0.089-0.263,0.134-0.393
		c0.068-0.199,0.137-0.396,0.203-0.604c0.044-0.138,0.086-0.282,0.129-0.424c0.063-0.209,0.128-0.417,0.189-0.633
		c0.041-0.144,0.08-0.293,0.121-0.44c0.06-0.221,0.121-0.439,0.179-0.667c0.04-0.153,0.077-0.312,0.115-0.468
		c0.057-0.23,0.113-0.459,0.167-0.694c0.038-0.162,0.073-0.329,0.109-0.493c0.052-0.236,0.104-0.471,0.154-0.712
		c0.037-0.175,0.071-0.354,0.106-0.532c0.048-0.239,0.095-0.479,0.141-0.725c0.035-0.187,0.068-0.377,0.102-0.566
		c0.043-0.24,0.085-0.479,0.126-0.724c0.034-0.203,0.067-0.41,0.101-0.617c0.039-0.239,0.077-0.479,0.114-0.722
		c0.033-0.218,0.065-0.439,0.097-0.66c0.034-0.233,0.067-0.466,0.1-0.701c0.033-0.244,0.065-0.491,0.097-0.738
		c0.028-0.219,0.057-0.438,0.084-0.66c0.033-0.266,0.064-0.533,0.095-0.802c0.024-0.209,0.048-0.417,0.072-0.628
		c0.032-0.293,0.063-0.588,0.094-0.885c0.019-0.185,0.038-0.37,0.057-0.557c0.032-0.329,0.064-0.661,0.095-0.994
		c0.014-0.156,0.028-0.312,0.042-0.468c0.033-0.37,0.064-0.743,0.095-1.118c0.009-0.117,0.019-0.235,0.028-0.354
		c0.033-0.415,0.064-0.833,0.094-1.253c0.005-0.078,0.011-0.157,0.017-0.235c0.033-0.465,0.063-0.933,0.093-1.403
		c0.002-0.026,0.003-0.054,0.005-0.08C110.026,72.592,110.113,65.21,110.019,58.091z M82.744,94.81
		c-4.25,4.504-11.349,4.713-15.853,0.463c-4.503-4.249-4.713-11.346-0.464-15.852c4.246-4.503,11.343-4.715,15.845-0.465
		C86.785,83.205,86.989,90.299,82.744,94.81z"/>
</g>
</svg>
