<?xml version="1.0" encoding="utf-8"?>
<!-- Generator: Adobe Illustrator 17.0.0, SVG Export Plug-In . SVG Version: 6.00 Build 0)  -->
<!DOCTYPE svg PUBLIC "-//W3C//DTD SVG 1.1//EN" "http://www.w3.org/Graphics/SVG/1.1/DTD/svg11.dtd">
<svg version="1.1" id="Capa_1" xmlns="http://www.w3.org/2000/svg" xmlns:xlink="http://www.w3.org/1999/xlink" x="0px" y="0px"
	 width="841.89px" height="595.28px" viewBox="0 0 841.89 595.28" enable-background="new 0 0 841.89 595.28" xml:space="preserve">
<g>
	<path fill="#FFFFFF" d="M607.527,378.339c-34.463,0-64.863,16.419-84.723,41.562l-184.211-94.205
		c2.411-8.995,4.145-18.288,4.145-28.069c0-10.648-2.059-20.673-4.931-30.426l183.399-93.772
		c19.751,26.281,50.937,43.459,86.348,43.459c59.986,0,108.511-48.525,108.511-108.457C716.065,48.552,667.54,0,607.554,0
		c-59.85,0-108.43,48.552-108.43,108.43c0,9.808,1.734,19.128,4.172,28.151l-184.184,94.205
		c-19.887-25.17-50.34-41.643-84.858-41.643c-59.932,0-108.43,48.579-108.43,108.484s48.498,108.457,108.43,108.457
		c35.466,0,66.624-17.232,86.457-43.54l183.317,93.772c-2.872,9.727-4.958,19.833-4.958,30.508
		c0,59.905,48.579,108.457,108.43,108.457c59.986,0,108.511-48.552,108.511-108.457
		C716.038,426.864,667.513,378.339,607.527,378.339z"/>
</g>
</svg>
