<?xml version="1.0" encoding="utf-8"?>
<!-- Generator: Adobe Illustrator 17.0.0, SVG Export Plug-In . SVG Version: 6.00 Build 0)  -->
<!DOCTYPE svg PUBLIC "-//W3C//DTD SVG 1.1//EN" "http://www.w3.org/Graphics/SVG/1.1/DTD/svg11.dtd">
<svg version="1.1" id="Capa_1" xmlns="http://www.w3.org/2000/svg" xmlns:xlink="http://www.w3.org/1999/xlink" x="0px" y="0px"
	 width="195px" height="130px" viewBox="-7.674 289.826 195 130" enable-background="new -7.674 289.826 195 130"
	 xml:space="preserve">
<g>
	<g>
		<path fill="#5BABF4" d="M89.826,289.826c-17.92,0-32.5,14.58-32.5,32.5c0,17.919,14.58,32.5,32.5,32.5
			c17.919,0,32.5-14.581,32.5-32.5C122.326,304.406,107.748,289.826,89.826,289.826z M104.324,314.888
			c0.014,0.322,0.022,0.647,0.022,0.971c0,9.885-7.522,21.28-21.285,21.28c-4.225,0-8.157-1.234-11.467-3.358
			c0.585,0.069,1.181,0.105,1.784,0.105c3.506,0,6.73-1.197,9.291-3.202c-3.273-0.06-6.036-2.223-6.988-5.196
			c0.456,0.086,0.926,0.135,1.406,0.135c0.682,0,1.344-0.089,1.972-0.261c-3.422-0.686-6-3.709-6-7.335c0-0.031,0-0.064,0.001-0.094
			c1.008,0.559,2.161,0.897,3.387,0.935c-2.006-1.339-3.326-3.63-3.326-6.225c0-1.372,0.368-2.657,1.012-3.762
			c3.688,4.527,9.202,7.504,15.417,7.818c-0.128-0.549-0.192-1.118-0.192-1.706c0-4.13,3.349-7.48,7.479-7.48
			c2.152,0,4.094,0.909,5.46,2.362c1.706-0.335,3.303-0.956,4.752-1.816c-0.563,1.748-1.745,3.213-3.294,4.139
			c1.515-0.181,2.96-0.581,4.297-1.177C107.055,312.518,105.787,313.836,104.324,314.888z"/>
	</g>
</g>
<g>
	<g>
		<g>
			<path fill="#D14226" d="M150.472,327.712c-0.211-0.14-0.427-0.292-0.653-0.445c-0.658-0.202-1.358-0.306-2.074-0.315h-0.086
				c-3.291,0-6.176,1.991-6.176,4.264c0,2.474,2.473,4.408,5.628,4.408c4.162,0,6.271-1.437,6.271-4.265
				c0-0.267-0.031-0.545-0.098-0.823C153.001,329.437,151.994,328.752,150.472,327.712z"/>
			<path fill="#D14226" d="M148.14,319.087c0.003,0,0.003,0,0.003,0c0.787,0,1.451-0.31,1.965-0.899
				c0.806-0.919,1.164-2.427,0.952-4.028c-0.373-2.862-2.419-5.244-4.554-5.306l-0.085-0.003c-0.755,0-1.43,0.312-1.941,0.898
				c-0.795,0.907-1.131,2.345-0.923,3.943c0.374,2.859,2.464,5.329,4.554,5.395H148.14L148.14,319.087z"/>
			<path fill="#D14226" d="M154.826,289.826c-17.92,0-32.5,14.58-32.5,32.5c0,17.919,14.58,32.5,32.5,32.5
				c17.919,0,32.5-14.581,32.5-32.5C187.326,304.406,172.748,289.826,154.826,289.826z M151.079,338.152
				c-1.228,0.355-2.557,0.534-3.951,0.534c-1.553,0-3.045-0.178-4.437-0.53c-2.693-0.679-4.683-1.968-5.612-3.628
				c-0.401-0.717-0.604-1.482-0.604-2.274c0-0.816,0.195-1.643,0.58-2.462c1.475-3.145,5.365-5.26,9.673-5.26
				c0.043,0,0.084,0,0.123,0c-0.35-0.617-0.518-1.255-0.518-1.927c0-0.334,0.045-0.674,0.134-1.021
				c-4.519-0.102-7.9-3.412-7.9-7.775c0-3.08,2.462-6.082,5.984-7.294c1.054-0.364,2.129-0.55,3.185-0.55h9.664
				c0.329,0,0.621,0.213,0.723,0.526c0.102,0.312-0.01,0.655-0.276,0.847l-2.161,1.564c-0.13,0.092-0.285,0.141-0.446,0.141h-0.774
				c0.999,1.198,1.584,2.906,1.584,4.824c0,2.117-1.071,4.118-3.02,5.644c-1.505,1.173-1.564,1.496-1.564,2.165
				c0.018,0.368,1.067,1.568,2.224,2.387c2.695,1.906,3.698,3.777,3.698,6.898C157.385,334.222,154.91,337.039,151.079,338.152z
				 M172.904,321.576c0,0.419-0.342,0.759-0.759,0.759h-5.492v5.494c0,0.419-0.342,0.759-0.757,0.759h-1.564
				c-0.422,0-0.762-0.34-0.762-0.759v-5.494h-5.488c-0.419,0-0.759-0.338-0.759-0.759v-1.562c0-0.419,0.34-0.762,0.759-0.762h5.488
				v-5.489c0-0.42,0.34-0.759,0.762-0.759h1.564c0.415,0,0.757,0.339,0.757,0.759v5.489h5.49c0.418,0,0.759,0.34,0.759,0.759v1.564
				H172.904z"/>
		</g>
	</g>
</g>
<g>
	<g>
		<path fill="#3C569A" d="M24.826,289.826c-17.92,0-32.5,14.58-32.5,32.5c0,17.919,14.58,32.5,32.5,32.5
			c17.919,0,32.5-14.581,32.5-32.5C57.326,304.406,42.748,289.826,24.826,289.826z M32.908,323.47h-5.288c0,8.448,0,18.846,0,18.846
			h-7.835c0,0,0-10.297,0-18.846h-3.724v-6.661h3.724v-4.308c0-3.086,1.466-7.907,7.907-7.907l5.806,0.022v6.466
			c0,0-3.528,0-4.214,0c-0.686,0-1.661,0.343-1.661,1.814v3.914h5.97L32.908,323.47z"/>
	</g>
</g>
<g>
	<g>
		<path fill="#8F8F8F" d="M89.826,354.826c-17.92,0-32.5,14.58-32.5,32.5c0,17.919,14.58,32.5,32.5,32.5
			c17.919,0,32.5-14.581,32.5-32.5C122.326,369.406,107.748,354.826,89.826,354.826z M104.324,379.888
			c0.014,0.322,0.022,0.647,0.022,0.971c0,9.885-7.522,21.28-21.285,21.28c-4.225,0-8.157-1.234-11.467-3.358
			c0.585,0.069,1.181,0.105,1.784,0.105c3.506,0,6.73-1.197,9.291-3.202c-3.273-0.06-6.036-2.223-6.988-5.196
			c0.456,0.086,0.926,0.135,1.406,0.135c0.682,0,1.344-0.089,1.972-0.261c-3.422-0.686-6-3.709-6-7.335c0-0.031,0-0.064,0.001-0.094
			c1.008,0.559,2.161,0.897,3.387,0.935c-2.006-1.339-3.326-3.63-3.326-6.225c0-1.372,0.368-2.657,1.012-3.762
			c3.688,4.527,9.202,7.504,15.417,7.818c-0.128-0.549-0.192-1.118-0.192-1.706c0-4.13,3.349-7.48,7.479-7.48
			c2.152,0,4.094,0.909,5.46,2.362c1.706-0.335,3.303-0.956,4.752-1.816c-0.563,1.748-1.745,3.213-3.294,4.139
			c1.515-0.181,2.96-0.581,4.297-1.177C107.055,377.518,105.787,378.836,104.324,379.888z"/>
	</g>
</g>
<g>
	<g>
		<g>
			<path fill="#8F8F8F" d="M150.472,392.712c-0.211-0.14-0.427-0.292-0.653-0.445c-0.658-0.202-1.358-0.306-2.074-0.315h-0.086
				c-3.291,0-6.176,1.991-6.176,4.264c0,2.474,2.473,4.408,5.628,4.408c4.162,0,6.271-1.437,6.271-4.265
				c0-0.267-0.031-0.545-0.098-0.823C153.001,394.437,151.994,393.752,150.472,392.712z"/>
			<path fill="#8F8F8F" d="M148.14,384.087c0.003,0,0.003,0,0.003,0c0.787,0,1.451-0.31,1.965-0.899
				c0.806-0.919,1.164-2.427,0.952-4.028c-0.373-2.862-2.419-5.244-4.554-5.306l-0.085-0.003c-0.755,0-1.43,0.312-1.941,0.898
				c-0.795,0.907-1.131,2.345-0.923,3.943c0.374,2.859,2.464,5.329,4.554,5.395H148.14L148.14,384.087z"/>
			<path fill="#8F8F8F" d="M154.826,354.826c-17.92,0-32.5,14.58-32.5,32.5c0,17.919,14.58,32.5,32.5,32.5
				c17.919,0,32.5-14.581,32.5-32.5C187.326,369.406,172.748,354.826,154.826,354.826z M151.079,403.152
				c-1.228,0.355-2.557,0.534-3.951,0.534c-1.553,0-3.045-0.178-4.437-0.53c-2.693-0.679-4.683-1.968-5.612-3.628
				c-0.401-0.717-0.604-1.482-0.604-2.274c0-0.816,0.195-1.643,0.58-2.462c1.475-3.145,5.365-5.26,9.673-5.26
				c0.043,0,0.084,0,0.123,0c-0.35-0.617-0.518-1.255-0.518-1.927c0-0.334,0.045-0.674,0.134-1.021
				c-4.519-0.102-7.9-3.412-7.9-7.775c0-3.08,2.462-6.082,5.984-7.294c1.054-0.364,2.129-0.55,3.185-0.55h9.664
				c0.329,0,0.621,0.213,0.723,0.526c0.102,0.312-0.01,0.655-0.276,0.847l-2.161,1.564c-0.13,0.092-0.285,0.141-0.446,0.141h-0.774
				c0.999,1.198,1.584,2.906,1.584,4.824c0,2.117-1.071,4.118-3.02,5.644c-1.505,1.173-1.564,1.496-1.564,2.165
				c0.018,0.368,1.067,1.568,2.224,2.387c2.695,1.906,3.698,3.777,3.698,6.898C157.385,399.222,154.91,402.039,151.079,403.152z
				 M172.904,386.576c0,0.419-0.342,0.759-0.759,0.759h-5.492v5.494c0,0.419-0.342,0.759-0.757,0.759h-1.564
				c-0.422,0-0.762-0.34-0.762-0.759v-5.494h-5.488c-0.419,0-0.759-0.338-0.759-0.759v-1.562c0-0.419,0.34-0.762,0.759-0.762h5.488
				v-5.489c0-0.42,0.34-0.759,0.762-0.759h1.564c0.415,0,0.757,0.339,0.757,0.759v5.489h5.49c0.418,0,0.759,0.34,0.759,0.759v1.564
				H172.904z"/>
		</g>
	</g>
</g>
<g>
	<g>
		<path fill="#8F8F8F" d="M24.826,354.826c-17.92,0-32.5,14.58-32.5,32.5c0,17.919,14.58,32.5,32.5,32.5
			c17.919,0,32.5-14.581,32.5-32.5C57.326,369.406,42.748,354.826,24.826,354.826z M32.908,388.47h-5.288c0,8.448,0,18.846,0,18.846
			h-7.835c0,0,0-10.297,0-18.846h-3.724v-6.661h3.724v-4.308c0-3.086,1.466-7.907,7.907-7.907l5.806,0.022v6.466
			c0,0-3.528,0-4.214,0c-0.686,0-1.661,0.343-1.661,1.814v3.914h5.97L32.908,388.47z"/>
	</g>
</g>
</svg>
