<?xml version="1.0" encoding="utf-8"?>
<!-- Generator: Adobe Illustrator 17.0.0, SVG Export Plug-In . SVG Version: 6.00 Build 0)  -->
<!DOCTYPE svg PUBLIC "-//W3C//DTD SVG 1.1//EN" "http://www.w3.org/Graphics/SVG/1.1/DTD/svg11.dtd">
<svg version="1.1" id="Capa_1" xmlns="http://www.w3.org/2000/svg" xmlns:xlink="http://www.w3.org/1999/xlink" x="0px" y="0px"
	 width="127px" height="109.64px" viewBox="0 0 127 109.64" enable-background="new 0 0 127 109.64" xml:space="preserve">
<path display="none" fill="#FFFFFF" d="M87.325,9.5c-9.921,0-18.675,5.062-23.825,12.744C58.35,14.562,49.594,9.5,39.672,9.5
	C23.867,9.5,11,22.372,11,38.195c0,4.288,1.012,8.53,3.276,13.17c9.428,21.067,28.909,36.828,43.421,46.223
	c1.182,0.833,2.308,1.567,3.369,2.183c0.756,0.436,1.591,0.653,2.434,0.653c0.842,0,1.675-0.217,2.433-0.653
	c1.059-0.616,2.185-1.351,3.197-2.07c14.675-9.506,34.145-25.259,43.867-46.918c1.988-4.069,3.002-8.306,3.002-12.589
	C116,22.372,103.133,9.5,87.325,9.5z M104.288,46.515c-0.027,0.054-0.387,0.83-0.406,0.882C95.421,66.303,77.453,80.762,63.7,89.669
	c-0.067,0.049-0.133,0.094-0.2,0.143c-0.123-0.082-0.246-0.165-0.37-0.257C49.557,80.762,31.599,66.308,22.712,46.51
	c-1.335-2.726-2.017-5.523-2.017-8.315c0-10.475,8.51-18.997,18.978-18.997c10.471,0,18.98,8.522,18.98,18.997
	c0,2.676,2.17,4.845,4.847,4.845c2.68,0,4.847-2.169,4.847-4.845c0-10.475,8.51-18.997,18.978-18.997
	c10.471,0,18.98,8.522,18.98,18.997C106.305,40.987,105.623,43.789,104.288,46.515z"/>
<path fill="#FFFFFF" d="M119.376,77.778h-15.832c-0.901-7.237-3.723-14.037-8.208-19.796l11.209-11.208
	c1.946-1.95,1.946-5.119,0.001-7.066c-0.945-0.945-2.198-1.468-3.532-1.468c-1.335,0-2.588,0.523-3.532,1.466l-11.208,11.21
	c-5.741-4.476-12.538-7.289-19.786-8.19V26.861c0-2.756-2.241-4.999-4.994-4.999c-2.756,0-4.995,2.243-4.995,4.999v15.872
	c-7.241,0.901-14.031,3.714-19.766,8.19L27.518,39.701c-0.944-0.945-2.198-1.466-3.532-1.466c-1.333,0-2.587,0.521-3.53,1.463
	c-0.944,0.946-1.465,2.199-1.465,3.533c0,1.334,0.521,2.59,1.464,3.536l11.217,11.229c-4.471,5.732-7.283,12.53-8.184,19.782
	L7.624,77.773c-2.754,0-4.995,2.241-4.995,4.997c0,2.756,2.24,4.999,4.995,4.999l19.786,0.005c0.105,0,0.198-0.01,0.28-0.024
	c0.079,0.015,0.174,0.024,0.279,0.024H98.98l0.131,0.005l0.18-0.005c0,0,0.076-0.012,0.089-0.014
	c0.063,0.009,0.132,0.014,0.205,0.014h19.791c2.754,0,4.995-2.24,4.995-4.997C124.371,80.021,122.13,77.778,119.376,77.778z
	 M33.369,77.778c2.414-14.668,15.13-25.562,30.125-25.562c15,0,27.722,10.895,30.137,25.562H33.369z"/>
</svg>
