<?xml version="1.0" encoding="utf-8"?>
<!-- Generator: Adobe Illustrator 17.0.0, SVG Export Plug-In . SVG Version: 6.00 Build 0)  -->
<!DOCTYPE svg PUBLIC "-//W3C//DTD SVG 1.1//EN" "http://www.w3.org/Graphics/SVG/1.1/DTD/svg11.dtd">
<svg version="1.1" id="Capa_1" xmlns="http://www.w3.org/2000/svg" xmlns:xlink="http://www.w3.org/1999/xlink" x="0px" y="0px"
	 width="127px" height="109.64px" viewBox="0 0 127 109.64" enable-background="new 0 0 127 109.64" xml:space="preserve">
<path fill="#FFFFFF" d="M87.12,9.891c-9.836,0-18.514,5.018-23.62,12.634C58.394,14.909,49.713,9.891,39.877,9.891
	c-15.669,0-28.426,12.761-28.426,28.448c0,4.251,1.004,8.456,3.248,13.057c9.347,20.886,28.66,36.511,43.047,45.825
	c1.172,0.826,2.288,1.554,3.34,2.164c0.75,0.432,1.577,0.648,2.413,0.648c0.835,0,1.66-0.215,2.412-0.648
	c1.05-0.611,2.166-1.339,3.17-2.052c14.549-9.424,33.852-25.042,43.49-46.514c1.97-4.034,2.976-8.234,2.976-12.48
	C115.548,22.652,102.792,9.891,87.12,9.891z M103.937,46.588c-0.027,0.054-0.383,0.823-0.403,0.875
	C95.146,66.205,77.333,80.54,63.698,89.371c-0.066,0.049-0.132,0.093-0.198,0.142c-0.122-0.081-0.244-0.164-0.366-0.254
	C49.677,80.54,31.873,66.21,23.063,46.583c-1.323-2.702-2-5.475-2-8.244c0-10.384,8.437-18.833,18.814-18.833
	c10.38,0,18.817,8.449,18.817,18.833c0,2.653,2.151,4.804,4.806,4.804c2.657,0,4.806-2.15,4.806-4.804
	c0-10.384,8.437-18.833,18.814-18.833c10.38,0,18.817,8.449,18.817,18.833C105.937,41.107,105.261,43.885,103.937,46.588z"/>
</svg>
